<svg width="100px" height="100px" viewBox="0 0 40 40" version="1.1" xmlns="http://www.w3.org/2000/svg">
    <title>CodyHouse Logo</title>
    <path fill-rule="evenodd" clip-rule="evenodd" d="M40,22V18H33.652a17.844,17.844,0,0,0-.38-2.4A16.906,16.906,0,0,0,37,5H33a12.906,12.906,0,0,1-1.565,6.177,11.462,11.462,0,0,0-4.83-4.195,6.869,6.869,0,0,0-13.21,0,11.471,11.471,0,0,0-4.831,4.195A12.917,12.917,0,0,1,7,5H3A16.906,16.906,0,0,0,6.728,15.6a17.844,17.844,0,0,0-.38,2.4H0v4H6.408a18.253,18.253,0,0,0,.466,2.209A16.923,16.923,0,0,0,3,35H7a12.914,12.914,0,0,1,1.641-6.306C11.243,33.741,15.62,38,20,38s8.757-4.259,11.359-9.306A12.914,12.914,0,0,1,33,35h4a16.923,16.923,0,0,0-3.874-10.791A18.253,18.253,0,0,0,33.592,22ZM11,17a3,3,0,1,1,3,3A3,3,0,0,1,11,17Zm9,13a4,4,0,1,1,4-4A4,4,0,0,1,20,30Zm6-10a3,3,0,1,1,3-3A3,3,0,0,1,26,20Z"></path>
</svg>